<?xml version="1.0" ?><!-- Uploaded to: SVG Repo, www.svgrepo.com, Generator: SVG Repo Mixer Tools -->
<svg width="800px" height="800px" viewBox="0 0 24 24" data-name="016_FOOD" id="_016_FOOD" xmlns="http://www.w3.org/2000/svg"><defs><style>.cls-1{fill:#333;}</style></defs><path class="cls-1" d="M16.75,7H7.25a2,2,0,0,0-2,2h0a2,2,0,0,0,2,2L8.93,9.56a1,1,0,0,1,1.3,0l1,.88a1,1,0,0,0,1.3,0l1-.9a1,1,0,0,1,1.28,0L16.75,11a2,2,0,0,0,2-2h0A2,2,0,0,0,16.75,7Z"/><path class="cls-1" d="M14.25,2H9.75a2,2,0,0,0-2,2h0a2,2,0,0,0,2,2l1.66-1.42a1,1,0,0,1,1.33,0L14.25,6a2,2,0,0,0,2-2h0A2,2,0,0,0,14.25,2Z"/><path class="cls-1" d="M19,12H5a2,2,0,0,0-2,2H3a2,2,0,0,0,2,2l1.68-1.44a1,1,0,0,1,1.3,0l1,.87a1,1,0,0,0,1.33,0l1-.87a1,1,0,0,1,1.3,0l1,.87a1,1,0,0,0,1.33,0l1-.87a1,1,0,0,1,1.3,0L19,16a2,2,0,0,0,2-2h0A2,2,0,0,0,19,12Z"/><path class="cls-1" d="M17,22H7a3,3,0,0,1-3-3V18a1,1,0,0,1,2,0v1a1,1,0,0,0,1,1H17a1,1,0,0,0,1-1V18a1,1,0,0,1,2,0v1A3,3,0,0,1,17,22Z"/></svg>